<svg width="221" height="74" viewBox="0 0 221 74" fill="none" xmlns="http://www.w3.org/2000/svg">
<path d="M36.7612 73.6561C36.5667 72.4787 36.4479 71.304 36.3534 70.1267C36.2994 69.5407 36.2724 68.952 36.2319 68.3633L36.1536 66.6C36.1158 65.4226 36.1158 64.2452 36.1536 63.0705C36.2049 61.8959 36.2454 60.7185 36.2832 59.5438L36.4857 52.485C36.5775 50.133 36.6478 47.7809 36.7558 45.4289H36.8908C36.9988 47.7809 37.069 50.133 37.1608 52.485L37.3634 59.5438C37.4012 60.7185 37.4444 61.8932 37.4903 63.0705C37.5362 64.2479 37.5362 65.4253 37.4903 66.6L37.412 68.3633C37.3715 68.952 37.3445 69.5407 37.2904 70.1267C37.1959 71.304 37.0771 72.4787 36.8827 73.6561H36.7612Z" fill="white"/>
<path d="M36.761 28.2407C36.653 25.886 36.5827 23.5339 36.4909 21.1792L36.2884 14.1204C36.2506 12.943 36.2101 11.7656 36.1588 10.5909C36.1075 9.41627 36.1156 8.2362 36.1588 7.05883L36.2371 5.29547C36.2776 4.70679 36.3046 4.1181 36.3586 3.52941C36.4531 2.35204 36.5719 1.17737 36.7664 0H36.9014C37.0958 1.17737 37.2146 2.35204 37.3091 3.52941C37.3632 4.1181 37.3902 4.70679 37.4307 5.29547L37.509 7.05883C37.5468 8.2362 37.5468 9.41357 37.509 10.5909C37.4712 11.7683 37.428 12.9457 37.3821 14.1204L37.1795 21.1792C37.0877 23.5339 37.0175 25.886 36.9095 28.2407H36.761Z" fill="white"/>
<path d="M46.2947 72.4191C45.8032 71.339 45.3819 70.2264 44.9877 69.1166C44.7825 68.5765 44.6042 68.0013 44.4152 67.4423L43.8751 65.76C43.5322 64.6339 43.2324 63.497 42.9678 62.3494C42.7031 61.2017 42.4493 60.054 42.1793 58.9091L40.559 52.042C40.0379 49.7466 39.5005 47.4513 38.9955 45.156L39.1251 45.1209C39.838 47.3649 40.5158 49.617 41.2125 51.8718L43.2351 58.6228C43.5754 59.7516 43.9183 60.875 44.2721 61.9983C44.6258 63.1217 44.9229 64.2586 45.1902 65.4035L45.571 67.1291C45.6844 67.707 45.8113 68.2821 45.9112 68.8654C46.1245 70.0239 46.3136 71.1905 46.4297 72.3759L46.2947 72.4191Z" fill="white"/>
<path d="M34.54 28.5485C33.8271 26.3018 33.1493 24.0496 32.4526 21.7975L30.43 15.0303C30.0897 13.9043 29.7441 12.7782 29.3903 11.6548C29.0366 10.5315 28.7314 9.39459 28.4722 8.24693L28.0833 6.52408C27.9699 5.94619 27.843 5.37101 27.7431 4.78772C27.5298 3.62655 27.3407 2.45998 27.2246 1.27721L27.3542 1.2421C27.8457 2.32226 28.2643 3.43482 28.6612 4.54739C28.8664 5.10097 29.042 5.66265 29.2337 6.22163L29.7738 7.90398C30.114 9.03004 30.4165 10.1669 30.6811 11.3146C30.9458 12.4622 31.2077 13.6099 31.4696 14.7576L33.0899 21.6301C33.611 23.9254 34.1511 26.2207 34.6561 28.5188L34.54 28.5485Z" fill="white"/>
<path d="M55.1858 68.7546C54.4297 67.8338 53.7384 66.8644 53.0687 65.903C52.7285 65.4224 52.4098 64.9255 52.0804 64.4367L51.1299 62.9488C50.5088 61.9496 49.9228 60.9289 49.3719 59.8892C48.821 58.8496 48.2701 57.8099 47.7193 56.7703L44.3654 50.5594C43.269 48.4774 42.1537 46.4062 41.0709 44.3134L41.1897 44.2459C42.4589 46.2307 43.6957 48.2316 44.9514 50.2218L48.6536 56.2329C49.2747 57.2321 49.9039 58.2285 50.5439 59.2222C51.1677 60.2214 51.759 61.2367 52.3126 62.2764L53.1227 63.8426C53.3928 64.3827 53.6628 64.8958 53.9005 65.4305C54.4081 66.5106 54.8915 67.5746 55.3128 68.6898L55.1858 68.7546Z" fill="white"/>
<path d="M32.4754 29.4344C31.2062 27.4496 29.9667 25.4486 28.7111 23.4557L25.0061 17.4311C24.3877 16.432 23.7639 15.4355 23.132 14.4391C22.5002 13.4426 21.9088 12.4246 21.3606 11.3849L20.5505 9.81872C20.2804 9.27864 20.0104 8.76556 19.7728 8.22818C19.2624 7.16423 18.7763 6.08407 18.3632 4.96881L18.4793 4.9013C19.2354 5.82213 19.9267 6.79157 20.5964 7.75291C20.9366 8.23628 21.2553 8.73316 21.5847 9.22193L22.5353 10.7098C23.1536 11.709 23.7369 12.7297 24.2878 13.7721C24.8387 14.8144 25.3896 15.8541 25.9432 16.891L29.297 23.102C30.3934 25.184 31.5087 27.2579 32.5915 29.3507L32.4754 29.4344Z" fill="white"/>
<path d="M42.9576 42.8606C44.6967 44.4484 46.4114 46.0606 48.1397 47.6619L53.2704 52.5064C54.1264 53.3138 54.9879 54.1158 55.8547 54.9124C56.7215 55.7091 57.5559 56.5381 58.3553 57.4022L59.5461 58.7065C59.9323 59.1494 60.3292 59.5841 60.7073 60.0378C61.4742 60.937 62.2195 61.8525 62.9135 62.8219L62.819 62.9164C61.8496 62.2224 60.9287 61.4771 60.0376 60.7102C59.5812 60.3321 59.1465 59.9352 58.7036 59.549L57.3993 58.3581C56.5406 57.5534 55.7116 56.719 54.9096 55.8576C54.1075 54.9962 53.3082 54.132 52.5062 53.2706L47.659 48.1399C46.0604 46.4116 44.4482 44.6996 42.8604 42.9605L42.9576 42.8606Z" fill="white"/>
<path d="M30.7058 30.8033C28.9667 29.2154 27.252 27.6006 25.5237 26.002L20.393 21.1412C19.537 20.3365 18.6755 19.5345 17.8087 18.7352C16.9419 17.9359 16.1048 17.1096 15.3028 16.2562L14.1092 14.9519C13.723 14.5064 13.3261 14.0716 12.948 13.618C12.1811 12.7187 11.4358 11.8033 10.7391 10.8338L10.8336 10.7393C11.803 11.4333 12.7239 12.1813 13.6177 12.9456C14.0741 13.3236 14.5088 13.7206 14.9517 14.1094L16.256 15.3003C17.1147 16.105 17.9464 16.9394 18.7485 17.8009C19.5505 18.6623 20.3525 19.5264 21.1518 20.3878L26.0125 25.5186C27.6111 27.2468 29.226 28.9616 30.8138 30.7006L30.7058 30.8033Z" fill="white"/>
<path d="M44.3099 41.0703C46.4 42.1504 48.4739 43.2684 50.5559 44.3648L56.7668 47.7186C57.8038 48.2749 58.8434 48.8258 59.8858 49.3713C60.9281 49.9168 61.9489 50.5027 62.9453 51.1292L64.4333 52.0798C64.922 52.4092 65.4189 52.7252 65.9023 53.0681C66.8717 53.7378 67.8304 54.4183 68.7539 55.1852L68.6864 55.3013C67.5711 54.8801 66.491 54.3967 65.427 53.889C64.8869 53.6433 64.3685 53.3706 63.8392 53.1113L62.2702 52.3012C61.2333 51.7476 60.2152 51.1589 59.2188 50.5325C58.2224 49.906 57.2232 49.2768 56.2268 48.6422L50.2265 44.948C48.2336 43.6951 46.2326 42.4556 44.2505 41.1864L44.3099 41.0703Z" fill="white"/>
<path d="M29.3527 32.591C27.2626 31.5109 25.1887 30.3929 23.104 29.2939L16.8931 25.94C15.8534 25.3891 14.8138 24.8382 13.7714 24.2873C12.7291 23.7364 11.7083 23.1505 10.7092 22.5267L9.22126 21.5761C8.73248 21.2467 8.23561 20.9307 7.75224 20.5905C6.7801 19.9208 5.82146 19.2403 4.90063 18.4707L4.96814 18.3627C6.0834 18.7839 7.16086 19.2673 8.22751 19.775C8.76759 20.0234 9.28607 20.2934 9.81804 20.5527L11.3843 21.3628C12.4239 21.9191 13.442 22.5105 14.4384 23.1343C15.4349 23.758 16.4313 24.3818 17.4305 25.0056L23.4415 28.7106C25.4344 29.9663 27.4381 31.203 29.4202 32.4749L29.3527 32.591Z" fill="white"/>
<path d="M45.1537 38.9882C47.4517 39.4932 49.7444 40.0333 52.0397 40.5545L58.9095 42.1747C60.0545 42.442 61.2022 42.7067 62.3498 42.9632C63.4975 43.2332 64.6344 43.5276 65.7604 43.8705L67.4455 44.4106C68.0017 44.6023 68.5634 44.7806 69.117 44.9858C70.2296 45.3801 71.334 45.7959 72.4196 46.2928L72.3845 46.4224C71.199 46.3063 70.0324 46.1173 68.874 45.9039C68.2907 45.804 67.7182 45.6771 67.1376 45.5637L65.4148 45.1829C64.2671 44.9156 63.1329 44.6077 62.0069 44.2621C60.8808 43.9164 59.7574 43.5708 58.6314 43.2251L51.8669 41.2026C49.6175 40.5058 47.3653 39.8281 45.1159 39.1151L45.1537 38.9882Z" fill="white"/>
<path d="M28.5114 34.6705C26.2106 34.1655 23.9207 33.6254 21.6227 33.1043L14.7529 31.484C13.6052 31.214 12.4602 30.9439 11.3099 30.6955C10.1595 30.4471 9.02533 30.1311 7.89927 29.7882L6.21422 29.2481C5.65794 29.0564 5.09626 28.8781 4.54268 28.6729C3.43011 28.2786 2.32565 27.8628 1.23739 27.3659L1.2725 27.2363C2.46067 27.3524 3.62724 27.5414 4.78301 27.7575C5.36359 27.8574 5.93878 27.9816 6.51936 28.095L8.24222 28.4758C9.38988 28.7431 10.5267 29.0483 11.6501 29.3966C12.7735 29.7504 13.8995 30.0933 15.0256 30.4336L21.7928 32.4562C24.0422 33.1529 26.2943 33.8307 28.5438 34.5436L28.5114 34.6705Z" fill="white"/>
<path d="M45.4233 36.7604C47.778 36.6524 50.1301 36.5821 52.4821 36.4903L59.541 36.2878C60.7156 36.25 61.8903 36.2068 63.0704 36.1609C64.2504 36.115 65.4251 36.115 66.5971 36.1609L68.3631 36.2392C68.9518 36.2797 69.5378 36.3067 70.1265 36.3607C71.3039 36.4552 72.4785 36.574 73.6559 36.7685V36.9035C72.4785 37.0979 71.3039 37.2167 70.1265 37.3112C69.5378 37.3653 68.9518 37.3923 68.3631 37.4328L66.5971 37.5111C65.4224 37.5489 64.2477 37.5489 63.0704 37.5111C61.893 37.4733 60.7156 37.4301 59.541 37.3842L52.4821 37.1816C50.1301 37.0898 47.778 37.0196 45.4233 36.9116V36.7604Z" fill="white"/>
<path d="M28.2353 36.8955C25.8833 37.0036 23.5285 37.0738 21.1765 37.1656L14.1177 37.3681C12.9403 37.4059 11.7629 37.4491 10.5882 37.495C9.41357 37.5409 8.2362 37.5409 7.05883 37.495L5.29277 37.4167C4.70679 37.3762 4.1181 37.3492 3.52941 37.2952C2.35204 37.2007 1.17737 37.0819 0 36.8874V36.7524C1.17737 36.558 2.35204 36.4392 3.52941 36.3447C4.1181 36.2906 4.70679 36.2636 5.29277 36.2231L7.05883 36.1448C8.2362 36.107 9.41357 36.107 10.5882 36.1448C11.7629 36.1826 12.9403 36.2258 14.1177 36.2717L21.1765 36.4743C23.5285 36.5661 25.8833 36.6363 28.2353 36.7443V36.8955Z" fill="white"/>
<path d="M28.5393 39.1178C26.2953 39.8307 24.0432 40.5085 21.7883 41.2052L15.0374 43.2278C13.9086 43.5681 12.7825 43.9137 11.6619 44.2648C10.5412 44.6158 9.40433 44.9237 8.25396 45.1856L6.52841 45.5664C5.95053 45.6798 5.37534 45.8067 4.79476 45.9066C3.63359 46.12 2.46702 46.309 1.28425 46.4251L1.24914 46.2955C2.3293 45.804 3.44186 45.3828 4.55442 44.9885C5.108 44.7833 5.66969 44.605 6.22597 44.4133L7.91101 43.8732C9.03708 43.5303 10.1739 43.2305 11.3216 42.9659C12.4693 42.7013 13.6169 42.4447 14.7619 42.1774L21.6317 40.5571C23.927 40.036 26.2224 39.4959 28.5204 38.9909L28.5393 39.1178Z" fill="white"/>
<path d="M45.1159 34.538C47.3599 33.8251 49.6121 33.1473 51.8669 32.4506L58.6341 30.428C59.7601 30.0877 60.8862 29.7448 62.0096 29.391C63.1329 29.0373 64.2698 28.7375 65.4148 28.4702L67.1403 28.0895C67.7182 27.976 68.2934 27.8518 68.8767 27.7519C70.0378 27.5359 71.2044 27.3468 72.3872 27.2307L72.4223 27.3603C71.3421 27.8518 70.2323 28.2731 69.1197 28.6673C68.5796 28.8726 68.0044 29.0508 67.4455 29.2425L65.7631 29.7826C64.6371 30.1256 63.5002 30.428 62.3525 30.6899C61.2048 30.9519 60.0572 31.2165 58.9095 31.4784L52.0397 33.0987C49.7444 33.6199 47.449 34.1599 45.151 34.6649L45.1159 34.538Z" fill="white"/>
<path d="M29.4148 41.1865C27.43 42.4557 25.429 43.6925 23.4388 44.9482L17.4278 48.6531C16.4286 49.2742 15.4322 49.898 14.4357 50.5272C13.4393 51.1564 12.4239 51.7451 11.3843 52.2986L9.81534 53.1088C9.27526 53.3788 8.76219 53.6488 8.22751 53.8865C7.16086 54.3942 6.0834 54.8775 4.96814 55.2988L4.90063 55.1827C5.82146 54.4266 6.7909 53.7353 7.75224 53.0656C8.23561 52.7226 8.72978 52.4067 9.21856 52.0772L10.7092 51.1267C11.7083 50.5056 12.7264 49.9196 13.766 49.3687C14.8057 48.8178 15.8453 48.267 16.8877 47.7134L23.0986 44.3622C25.1806 43.2631 27.2545 42.1479 29.3446 41.065L29.4148 41.1865Z" fill="white"/>
<path d="M68.7576 18.4708C67.8341 19.2269 66.8673 19.9209 65.9033 20.5879C65.4226 20.9309 64.9257 21.2468 64.437 21.5763L62.9491 22.5268C61.9499 23.1506 60.9292 23.7339 59.8868 24.2875C58.8445 24.841 57.8048 25.3838 56.7679 25.9401L50.5569 29.294C48.4722 30.3904 46.3983 31.5056 44.3082 32.5885L44.2407 32.4724C46.2228 31.2032 48.2265 29.9637 50.2194 28.708L56.2305 25.0031C57.2296 24.3847 58.2261 23.7582 59.2225 23.129C60.219 22.4998 61.237 21.9084 62.2767 21.3575L63.8429 20.5474C64.383 20.2774 64.896 20.0073 65.4334 19.7697C66.4974 19.262 67.5775 18.7787 68.6928 18.3574L68.7576 18.4708Z" fill="white"/>
<path d="M62.9189 10.834C62.2249 11.8034 61.4769 12.7243 60.7127 13.6181C60.3347 14.0717 59.9377 14.5065 59.5515 14.9521L58.3553 16.2564C57.5505 17.1151 56.7161 17.9441 55.8547 18.7461C54.9933 19.5481 54.1291 20.3502 53.2677 21.1522L48.137 26.0129C46.4087 27.6142 44.694 29.2264 42.9549 30.8142L42.8604 30.7197C44.4455 28.9779 46.0604 27.2632 47.659 25.5349L52.5197 20.4042C53.3244 19.5454 54.1264 18.684 54.9231 17.8172C55.7197 16.9504 56.5514 16.1186 57.4155 15.3166L58.7171 14.1258C59.1627 13.7369 59.5974 13.3399 60.0511 12.9619C60.9503 12.1977 61.8658 11.4497 62.8352 10.7557L62.9189 10.834Z" fill="white"/>
<path d="M30.7841 42.9551C29.199 44.6942 27.5841 46.4089 25.9855 48.1372L21.1248 53.2679C20.3201 54.1266 19.5181 54.9881 18.7214 55.8549C17.9248 56.7217 17.1012 57.5534 16.256 58.3554L14.9517 59.549C14.5061 59.9352 14.0714 60.3321 13.6177 60.7102C12.7212 61.4771 11.803 62.2224 10.8336 62.9164L10.7391 62.8219C11.4331 61.8525 12.1811 60.9316 12.9453 60.0378C13.3234 59.5841 13.7203 59.1494 14.1092 58.7065L15.3 57.4022C16.1048 56.5435 16.9392 55.7145 17.8006 54.9124C18.662 54.1104 19.5235 53.3084 20.3849 52.5064L25.5156 47.6592C27.2439 46.0606 28.9586 44.4457 30.6977 42.8606L30.7841 42.9551Z" fill="white"/>
<path d="M55.3015 4.96874C54.8802 6.084 54.3969 7.16146 53.8892 8.22811C53.6407 8.76819 53.3707 9.28667 53.1115 9.81865L52.3013 11.3849C51.7451 12.4245 51.1537 13.4426 50.5299 14.439C49.9061 15.4355 49.2742 16.4319 48.6396 17.4311L44.9455 23.4421C43.6898 25.435 42.453 27.4387 41.1811 29.4208L41.065 29.3533C42.1452 27.2632 43.2631 25.1893 44.3622 23.1046L47.7161 16.8937C48.2724 15.8567 48.8232 14.8171 49.3687 13.772C49.9142 12.727 50.5002 11.7089 51.1294 10.7125L52.0799 9.22456C52.4094 8.73579 52.7253 8.23892 53.0656 7.75555C53.7353 6.7834 54.4293 5.82476 55.1854 4.90393L55.3015 4.96874Z" fill="white"/>
<path d="M18.3632 68.6872C18.7817 67.572 19.2678 66.4945 19.7728 65.4279C20.0212 64.8878 20.2912 64.3693 20.5505 63.84L21.3606 62.2738C21.9169 61.2341 22.5083 60.2161 23.132 59.2197C23.7558 58.2232 24.3823 57.2268 25.0061 56.2276L28.7084 50.2273C29.964 48.2345 31.2008 46.2335 32.47 44.2514L32.5888 44.3189C31.5087 46.409 30.3907 48.4829 29.2943 50.5649L25.9405 56.7758C25.3842 57.8128 24.8306 58.8524 24.2878 59.8975C23.745 60.9425 23.1509 61.9579 22.5272 62.957L21.5766 64.4449C21.2499 64.9337 20.9312 65.4279 20.591 65.9112C19.9213 66.8834 19.2408 67.842 18.4739 68.7628L18.3632 68.6872Z" fill="white"/>
<path d="M46.4246 1.27196C46.3084 2.46013 46.1194 3.6267 45.9034 4.78247C45.8035 5.36575 45.6793 5.94094 45.5658 6.51882L45.1851 8.24437C44.9177 9.38934 44.6099 10.5262 44.2642 11.6523C43.9105 12.7756 43.5675 13.9017 43.2273 15.0278L41.2047 21.7949C40.508 24.0444 39.8302 26.2965 39.1173 28.5459L38.9877 28.5108C39.49 26.2101 40.03 23.9202 40.5512 21.6221L42.1849 14.7496C42.4523 13.6047 42.7169 12.457 42.9735 11.3066C43.23 10.1563 43.5324 9.01939 43.8808 7.89602L44.4209 6.21368C44.6126 5.6547 44.7908 5.09301 44.9961 4.53943C45.3903 3.42687 45.8062 2.32241 46.303 1.23415L46.4246 1.27196Z" fill="white"/>
<path d="M27.2324 72.3841C27.3486 71.1959 27.5376 70.0293 27.7509 68.8736C27.8508 68.2903 27.9777 67.7151 28.0912 67.1372L28.4692 65.4117C28.7366 64.2667 29.0417 63.1325 29.3901 62.0065C29.7438 60.8831 30.0868 59.757 30.427 58.631L32.4496 51.88C33.1463 49.6306 33.8241 47.3757 34.537 45.129L34.6666 45.1641C34.1617 47.4648 33.6216 49.7548 33.1004 52.0501L31.4802 58.9199C31.2128 60.0649 30.9482 61.2125 30.6916 62.3602C30.4351 63.5079 30.1327 64.6447 29.7843 65.7708L29.2442 67.4532C29.0525 68.0121 28.8743 68.5711 28.6718 69.1274C28.2748 70.2373 27.8616 71.3417 27.3648 72.43L27.2324 72.3841Z" fill="white"/>
<path d="M37.0366 0C37.3985 1.15307 37.6685 2.33314 37.8468 3.52941C38.0358 4.70679 38.1654 5.88416 38.2437 7.05883C38.322 8.2362 38.3193 9.41627 38.2302 10.5909C38.1384 11.7656 38.0304 12.943 37.9737 14.1204L37.8063 17.6498L37.5848 21.1792C37.4201 23.5339 37.2581 25.886 37.0447 28.2407H36.7747C36.5614 25.886 36.3993 23.5339 36.2346 21.1792L36.0105 17.6498L35.8296 14.1204C35.7702 12.943 35.6648 11.7656 35.5595 10.5909C35.4758 9.41627 35.4758 8.2335 35.5595 7.05883C35.6378 5.88416 35.7675 4.70679 35.9538 3.52941C36.132 2.33314 36.402 1.15307 36.7639 0H37.0366Z" fill="#FABC2A"/>
<path d="M36.7659 64.9013C36.4094 64.1235 36.1367 63.308 35.9557 62.4709C35.7721 61.6689 35.6398 60.8588 35.5615 60.0405C35.4778 59.2331 35.4778 58.4176 35.5615 57.6102C35.6533 56.8001 35.7586 55.99 35.8315 55.1798L36.0124 52.7495L36.2366 50.3191C36.4013 48.6989 36.5633 47.0787 36.7767 45.4584H37.0467C37.26 47.0787 37.4221 48.6989 37.5868 50.3191L37.8082 52.7495L37.9918 55.1798C38.0485 55.99 38.1566 56.8001 38.2484 57.6102C38.3375 58.4176 38.3402 59.2331 38.2619 60.0405C38.1836 60.8588 38.0512 61.6716 37.8649 62.4709C37.684 63.308 37.4113 64.1235 37.0548 64.9013H36.7659Z" fill="#FABC2A"/>
<path d="M44.2559 64.8095C43.6969 64.1155 43.2108 63.3621 42.8085 62.5655C42.4115 61.8039 42.0632 61.0181 41.7661 60.2134C41.4718 59.4168 41.2557 58.5932 41.1234 57.756C40.9911 56.9135 40.875 56.0683 40.713 55.2339L40.235 52.736L39.7894 50.2273C39.5194 48.5477 39.2277 46.8708 38.9955 45.1776L39.2655 45.1074C39.9109 46.6898 40.505 48.2858 41.1045 49.879L41.9767 52.2742L42.8112 54.683C43.0812 55.4931 43.408 56.2762 43.7158 57.0729C44.0182 57.8641 44.2424 58.685 44.3855 59.5221C44.5286 60.3673 44.6177 61.2234 44.6555 62.0794C44.7041 62.9705 44.6582 63.8643 44.5232 64.7474L44.2559 64.8095Z" fill="#FABC2A"/>
<path d="M34.5457 28.5647C34.2243 28.1867 33.9516 27.7978 33.6761 27.4062C33.4115 27.0228 33.1658 26.6231 32.9443 26.2127C32.8174 26.0101 32.677 25.8157 32.5231 25.6321C32.3826 25.4485 32.3151 25.2189 32.3367 24.9867C32.361 24.7247 32.4312 24.4709 32.5447 24.2333C32.6986 23.9119 32.9092 23.6203 33.163 23.3719L33.4331 23.3043C33.776 23.3908 34.1028 23.5393 34.3971 23.7391C34.6132 23.8849 34.8022 24.0686 34.9534 24.2792C35.0857 24.4682 35.1424 24.7031 35.1127 24.9327C35.0695 25.1703 35.0398 25.4106 35.0236 25.6537C35.0344 26.1209 35.0209 26.5907 34.9804 27.0579C34.9372 27.5332 34.8967 28.0084 34.8049 28.4945L34.5457 28.5647Z" fill="#FABC2A"/>
<path d="M51.6709 62.6868C50.9337 62.1252 50.2532 61.4933 49.6402 60.7966C49.0434 60.1323 48.4844 59.4356 47.9713 58.7038C47.4637 57.9801 47.0235 57.2104 46.6616 56.403C46.2971 55.5929 45.9514 54.7828 45.5599 53.9727L44.3933 51.5882L43.2619 49.1849C42.5219 47.5646 41.7793 45.9633 41.0826 44.3242L41.3176 44.1891C42.3977 45.6096 43.405 47.057 44.4311 48.5098L45.9487 50.689L47.4286 52.8925C47.92 53.627 48.4547 54.3372 48.9759 55.0528C49.4917 55.7711 49.9399 56.538 50.3099 57.3401C50.6879 58.1502 51.0147 58.9819 51.2928 59.8298C51.5872 60.7075 51.7924 61.6121 51.9058 62.5302L51.6709 62.6868Z" fill="#FABC2A"/>
<path d="M32.4875 29.4559C32.0473 29.1211 31.6504 28.7592 31.2534 28.4001C30.8619 28.0436 30.4892 27.6683 30.1354 27.274C29.9437 27.0823 29.7412 26.9013 29.5306 26.7339C29.3307 26.5638 29.1903 26.3316 29.1363 26.075C29.0742 25.7915 29.0607 25.4998 29.0958 25.2136C29.139 24.8382 29.247 24.471 29.4198 24.1334L29.6548 23.9984C30.0301 24.02 30.4001 24.1037 30.7484 24.2523C31.0158 24.3657 31.2588 24.5223 31.4748 24.7167C31.6693 24.8949 31.7989 25.1299 31.8448 25.3891C31.8853 25.6565 31.9393 25.9211 32.0068 26.1803C32.1661 26.6772 32.3066 27.1876 32.4227 27.7115C32.5388 28.2353 32.6495 28.7592 32.7197 29.3074L32.4875 29.4559Z" fill="#FABC2A"/>
<path d="M58.4095 58.5283C57.5264 58.1611 56.6839 57.7101 55.89 57.1781C55.1177 56.6678 54.3778 56.1142 53.6703 55.5174C52.9682 54.9287 52.3201 54.2752 51.7395 53.5677C51.1562 52.8548 50.5864 52.1338 49.9788 51.4452L48.1669 49.3767L46.3846 47.2785C45.2072 45.8662 44.0299 44.4593 42.8741 43.0146L43.0658 42.8255C44.5105 43.9678 45.9175 45.1479 47.3298 46.3225L49.428 48.1075L51.4965 49.9168C52.1851 50.5244 52.9061 51.0941 53.619 51.6774C54.3265 52.2607 54.9773 52.9061 55.5687 53.6082C56.1708 54.3103 56.7325 55.0475 57.2483 55.8171C57.7803 56.611 58.2312 57.4536 58.5985 58.3366L58.4095 58.5283Z" fill="#FABC2A"/>
<path d="M30.7307 30.8492C30.1609 30.5792 29.6262 30.2767 29.0915 29.9716C28.5569 29.6665 28.0411 29.3424 27.5442 28.9995C27.2985 28.8293 27.0041 28.6997 26.7341 28.5512C26.4668 28.4081 26.2453 28.1947 26.0941 27.9328C25.9321 27.6493 25.8133 27.3414 25.7458 27.0228C25.6593 26.6258 25.6404 26.2154 25.6944 25.813L25.8862 25.6213C26.2885 25.5673 26.699 25.5862 27.096 25.6726C27.4146 25.7428 27.7197 25.8616 28.0033 26.0236C28.2652 26.1722 28.4813 26.3936 28.6244 26.6609C28.7594 26.9391 28.9079 27.2091 29.0726 27.471C29.4156 27.9679 29.7396 28.481 30.0448 29.0157C30.3499 29.5503 30.6551 30.0958 30.9224 30.6575L30.7307 30.8492Z" fill="#FABC2A"/>
<path d="M63.8614 52.5496C62.8892 52.4065 61.9333 52.1716 61.0044 51.8475C60.1024 51.537 59.2194 51.1778 58.358 50.7673C57.5074 50.365 56.6945 49.887 55.9276 49.3415C55.158 48.8015 54.3965 48.2263 53.608 47.7078L51.2532 46.1362L48.9174 44.5294C47.3674 43.4493 45.8174 42.3691 44.2916 41.235L44.4266 41.0027C46.1657 41.7588 47.8778 42.5609 49.5925 43.3602L52.1498 44.5807L54.6881 45.8364C55.5334 46.2577 56.4029 46.6465 57.2643 47.0273C58.123 47.4189 58.944 47.8887 59.719 48.4288C60.5021 48.9716 61.2528 49.5576 61.9684 50.1841C62.7137 50.8268 63.3969 51.537 64.0072 52.3066L63.8614 52.5496Z" fill="#FABC2A"/>
<path d="M29.3943 32.6505C28.6868 32.4885 28.0063 32.2806 27.3204 32.078C26.6345 31.8755 25.9702 31.6406 25.3167 31.3867C24.9899 31.2598 24.6308 31.1869 24.2878 31.0897C23.9503 30.9952 23.637 30.8224 23.3805 30.582C23.1078 30.3255 22.8728 30.0365 22.6784 29.7179C22.4462 29.3398 22.2787 28.924 22.1869 28.4892L22.322 28.2543C22.7432 28.1166 23.1888 28.0518 23.6316 28.0653C24.0043 28.0734 24.3742 28.1328 24.7307 28.2435C25.0683 28.3488 25.3761 28.5324 25.6245 28.7836C25.8946 29.0293 26.1241 29.3047 26.3968 29.5235C26.9369 29.9663 27.477 30.4281 27.9955 30.9169C28.514 31.4056 29.0351 31.8917 29.5293 32.4237L29.3943 32.6505Z" fill="#FABC2A"/>
<path d="M67.4586 45.1561C66.4621 45.2641 65.4603 45.2776 64.4611 45.1993C63.4917 45.1291 62.5249 45.0021 61.569 44.8266C60.6212 44.6538 59.6895 44.3999 58.7849 44.0651C57.8803 43.7302 56.981 43.3765 56.0656 43.0714L53.3274 42.1505L50.6 41.1892C48.7853 40.5303 46.968 39.8768 45.1668 39.1747L45.237 38.9046C47.1489 39.1963 49.0473 39.5365 50.9484 39.8768L53.7919 40.4169L56.6246 40.9867C57.5697 41.1811 58.5149 41.3269 59.4762 41.4862C60.4267 41.6482 61.3584 41.894 62.2657 42.2207C63.1811 42.5448 64.0777 42.9228 64.9499 43.3495C65.8545 43.7789 66.716 44.2946 67.5234 44.886L67.4586 45.1561Z" fill="#FABC2A"/>
<path d="M28.5643 34.7352C27.7299 34.7352 26.9117 34.6785 26.0908 34.6299L24.8648 34.5327L23.6496 34.395C23.2473 34.3437 22.8395 34.3518 22.4155 34.3302C22.0078 34.3113 21.6108 34.2086 21.2463 34.025C20.8601 33.8387 20.4956 33.6065 20.1661 33.331C19.7908 33.0178 19.4694 32.6451 19.2129 32.2266L19.2831 31.9565C19.7125 31.7216 20.1769 31.5623 20.6603 31.4785C21.0789 31.4056 21.5082 31.3813 21.9322 31.4083C22.3372 31.4353 22.7342 31.5461 23.096 31.7351C23.4606 31.9214 23.8198 32.1401 24.1951 32.2968L25.3158 32.7855L26.4256 33.3256C27.1601 33.6956 27.8973 34.0574 28.6211 34.4733L28.5643 34.7352Z" fill="#FABC2A"/>
<path d="M68.8352 36.9629C67.8901 37.3221 66.9126 37.5948 65.9188 37.773C64.9548 37.9594 63.9799 38.0917 62.9997 38.17C62.0303 38.2537 61.0527 38.2537 60.0833 38.17C59.1111 38.0782 58.139 37.9702 57.1668 37.8999L54.2477 37.7163L51.3313 37.4949C49.387 37.3302 47.44 37.1681 45.4957 36.9548V36.6848C47.44 36.4714 49.387 36.3094 51.3313 36.1447L54.2477 35.9206L57.1668 35.7396C58.139 35.6829 59.1111 35.5749 60.0833 35.4831C61.0527 35.394 62.0303 35.3913 62.9997 35.4696C63.9799 35.5479 64.9548 35.6802 65.9188 35.8665C66.9126 36.0448 67.8901 36.3175 68.8352 36.6767V36.9629Z" fill="#FABC2A"/>
<path d="M28.3072 36.9631C27.3837 37.1765 26.4628 37.3385 25.5393 37.5032L24.1567 37.7246L22.7714 37.9083C22.3123 37.9623 21.8506 38.0784 21.3888 38.1783C20.9324 38.262 20.4626 38.262 20.0062 38.1783C19.5336 38.0973 19.0746 37.965 18.6317 37.7814C18.1321 37.5842 17.665 37.3115 17.2491 36.9712V36.7012C17.665 36.3609 18.1321 36.0882 18.6317 35.8911C19.0773 35.7075 19.5417 35.5751 20.017 35.4941C20.4761 35.4158 20.9432 35.4185 21.3996 35.5076C21.8614 35.594 22.3231 35.7102 22.7822 35.7642L24.1675 35.9451L25.5501 36.1692C26.4737 36.3339 27.3945 36.496 28.318 36.7093L28.3072 36.9631Z" fill="#FABC2A"/>
<path d="M68.1734 28.5864C67.3363 29.1859 66.4479 29.7097 65.5162 30.1472C64.617 30.5793 63.6935 30.9654 62.7537 31.2976C61.8194 31.6297 60.8608 31.8835 59.8832 32.0537C58.903 32.2211 57.92 32.3723 56.9506 32.5721L54.0369 33.1662L51.1123 33.7063C49.1572 34.0601 47.2049 34.4165 45.239 34.7217L45.1688 34.4516C47.0239 33.7333 48.8926 33.0663 50.7613 32.3939L53.5724 31.411L56.3916 30.4658C57.3313 30.1553 58.2603 29.7961 59.1919 29.4505C60.1208 29.1102 61.0795 28.8483 62.0543 28.6701C63.0373 28.4865 64.0283 28.3595 65.0248 28.2839C66.0482 28.1975 67.0798 28.2056 68.1032 28.3082L68.1734 28.5864Z" fill="#FABC2A"/>
<path d="M28.6246 39.1827C27.6768 39.6579 26.7181 40.0819 25.7595 40.5086L24.3148 41.127L22.8593 41.7048C22.3705 41.8939 21.9006 42.1369 21.4227 42.3556C20.9501 42.5744 20.4424 42.7148 19.9239 42.7715C19.3866 42.8309 18.8438 42.839 18.3037 42.7904C17.7231 42.7418 17.1533 42.6095 16.6106 42.3961L16.5403 42.1261C16.9103 41.6751 17.3424 41.2782 17.823 40.9487C18.2632 40.6409 18.7331 40.379 19.2245 40.1629C19.7025 39.9523 20.2102 39.82 20.7314 39.7741C21.2525 39.7228 21.7845 39.6985 22.3003 39.6174L23.8476 39.3933L25.4084 39.2043C26.4535 39.0963 27.4958 38.9829 28.5544 38.9207L28.6246 39.1827Z" fill="#FABC2A"/>
<path d="M29.52 41.2433C28.6208 42.0075 27.6946 42.7285 26.7683 43.4549L25.383 44.5188L23.9653 45.5504C23.4874 45.8879 23.0418 46.2768 22.5827 46.6305C22.1237 47.0032 21.6106 47.3056 21.0624 47.5271C20.5115 47.7593 19.939 47.9402 19.3531 48.0672C18.7239 48.2103 18.0785 48.2643 17.4331 48.2319L17.2981 47.9969C17.5924 47.4218 17.9624 46.8898 18.3998 46.4145C18.7995 45.9716 19.2396 45.5639 19.7122 45.1993C20.174 44.8402 20.6843 44.5512 21.2298 44.3406C21.7699 44.1246 22.337 43.9328 22.869 43.6898L24.4703 42.9742L26.0905 42.2964C27.1707 41.8589 28.2698 41.4161 29.3823 41.0191L29.52 41.2433Z" fill="#FABC2A"/>
<path d="M65.5028 20.4691C64.8277 21.2765 64.085 22.0245 63.2776 22.6996C62.4999 23.3639 61.6898 23.985 60.8473 24.5656C60.0101 25.1407 59.1244 25.6457 58.2036 26.0751C57.2773 26.5044 56.3457 26.9176 55.4384 27.3767L52.711 28.7404L49.9566 30.0717C48.1149 30.9412 46.2786 31.8161 44.4127 32.6478L44.2858 32.4048C45.9384 31.2058 47.6153 30.0501 49.2896 28.8943L51.8145 27.1768L54.3609 25.4972C55.2115 24.9409 56.0352 24.3387 56.8696 23.7527C57.7013 23.1695 58.5816 22.6564 59.4998 22.2189C60.4233 21.776 61.3684 21.3818 62.3325 21.0388C63.3208 20.6797 64.3416 20.407 65.3785 20.2287L65.5028 20.4691Z" fill="#FABC2A"/>
<path d="M30.9175 43.0011C30.1533 44.0678 29.3513 45.0966 28.552 46.1309L27.3368 47.662L26.0919 49.1634C25.6733 49.6603 25.2818 50.1976 24.8983 50.7188C24.5095 51.2346 24.0558 51.7018 23.5481 52.1014C23.0215 52.5119 22.4599 52.8791 21.8739 53.1978C21.2609 53.5434 20.6047 53.8108 19.9215 53.9917L19.7298 53.8C19.9107 53.1195 20.178 52.4633 20.5237 51.8476C20.8396 51.2697 21.2015 50.7161 21.6038 50.1949C22.0035 49.6819 22.468 49.2228 22.9864 48.8312C23.5076 48.4343 24.045 48.0562 24.5419 47.6377L26.046 46.3928L27.5744 45.1776C28.6087 44.3675 29.6375 43.579 30.7042 42.8121L30.9175 43.0011Z" fill="#FABC2A"/>
<path d="M60.8646 13.0536C60.3974 14.0338 59.8493 14.9709 59.2201 15.8566C58.6152 16.7234 57.9671 17.5606 57.2758 18.3626C56.5899 19.1592 55.8446 19.9018 55.0426 20.5796C54.2324 21.2547 53.4223 21.9298 52.6365 22.6211L50.2818 24.7166L47.9 26.7824C46.3014 28.1488 44.7055 29.5179 43.0717 30.8492L42.88 30.6575C44.2113 29.0372 45.5804 27.417 46.9468 25.8292L49.0126 23.4474L51.1081 21.0927C51.8102 20.3123 52.4745 19.494 53.1523 18.6893C53.8301 17.8846 54.57 17.1366 55.3666 16.4534C56.1632 15.7702 56.9868 15.1194 57.8699 14.5091C58.7556 13.8799 59.6926 13.3317 60.6729 12.8646L60.8646 13.0536Z" fill="#FABC2A"/>
<path d="M54.3755 6.82927C54.1594 7.93373 53.8516 9.01659 53.4519 10.0697C53.0712 11.1067 52.6418 12.1139 52.1611 13.0969C51.6886 14.0771 51.1377 15.0196 50.5166 15.9161C49.8928 16.8153 49.2555 17.7038 48.6614 18.6165L46.8711 21.3547L45.0456 24.0713C43.8142 25.8724 42.5855 27.679 41.3109 29.4559L41.0787 29.3209C41.9806 27.3307 42.9312 25.3648 43.8763 23.3962L45.3156 20.4555L46.79 17.5363C47.2869 16.5642 47.7379 15.5677 48.2024 14.5659C48.6695 13.583 49.2123 12.6351 49.8226 11.7332C50.4356 10.8286 51.0918 9.95093 51.7993 9.103C52.5122 8.23078 53.2953 7.41526 54.1405 6.67265L54.3755 6.82927Z" fill="#FABC2A"/>
<path d="M32.7187 44.3432C32.1786 45.6934 31.6196 46.995 31.0499 48.3101L30.1776 50.2706L29.2676 52.2094C28.9598 52.8548 28.7032 53.5272 28.4224 54.1888C28.1442 54.845 27.7905 55.4688 27.3665 56.044C26.9372 56.6273 26.4673 57.1782 25.9569 57.6939C25.4222 58.2421 24.8282 58.7282 24.1801 59.1386L23.9451 59.0036C23.9748 58.2367 24.0963 57.4752 24.3043 56.738C24.4933 56.0386 24.7363 55.3554 25.028 54.6938C25.3142 54.0403 25.6761 53.4219 26.1081 52.8521C26.5402 52.2769 26.9966 51.718 27.3989 51.1293L28.6249 49.374L29.8833 47.635C30.7393 46.4873 31.5899 45.3342 32.4865 44.2082L32.7187 44.3432Z" fill="#FABC2A"/>
<path d="M46.2883 2.31685C46.3531 3.48072 46.3234 4.64999 46.1992 5.80846C46.0885 6.95072 45.9292 8.07679 45.7023 9.19205C45.4863 10.3046 45.1866 11.401 44.8112 12.4703C44.4278 13.5505 44.0335 14.6063 43.6824 15.6838L42.6293 18.9243L41.5329 22.1431C40.7876 24.3035 40.0477 26.4341 39.2538 28.5674L38.9838 28.4972C39.3618 26.2531 39.7939 24.0253 40.2178 21.7948L40.8821 18.4571L41.5869 15.1221C41.8246 14.015 42.0136 12.8916 42.2161 11.7763C42.4241 10.6611 42.7157 9.56201 43.083 8.48995C43.4529 7.40979 43.8715 6.35124 44.344 5.31159C44.8193 4.24493 45.3783 3.22148 46.0156 2.24394L46.2883 2.31685Z" fill="#FABC2A"/>
<path d="M34.8021 45.1721C34.6104 46.7114 34.3701 48.2371 34.1324 49.7628L33.7544 52.0473L33.3331 54.3211C33.19 55.0772 33.0955 55.8468 32.9848 56.6137C32.8714 57.3752 32.6769 58.1205 32.4042 58.8415C32.126 59.5706 31.7993 60.2808 31.4239 60.9667C31.0405 61.6878 30.5733 62.3628 30.0386 62.9812L29.7686 62.911C29.612 62.1117 29.5472 61.2962 29.5742 60.4807C29.5904 59.7003 29.6633 58.9225 29.7875 58.1529C29.909 57.3914 30.1143 56.6461 30.3978 55.9305C30.684 55.2122 30.9865 54.4966 31.2403 53.7702L32.0126 51.591L32.8227 49.4307C33.379 47.9887 33.9326 46.5466 34.5375 45.11L34.8021 45.1721Z" fill="#FABC2A"/>
<path d="M103.19 17.4315V32.5318H101.366V19.053H93.7653V32.5318H91.9411V17.4315H103.19Z" fill="white"/>
<path d="M111.79 32.7345C110.506 32.7345 109.361 32.4203 108.354 31.792C107.347 31.1637 106.553 30.2718 105.972 29.1165C105.398 27.9544 105.111 26.5795 105.111 24.9918C105.111 23.3973 105.398 22.0191 105.972 20.857C106.553 19.6949 107.347 18.7997 108.354 18.1714C109.361 17.543 110.506 17.2289 111.79 17.2289C113.08 17.2289 114.225 17.543 115.225 18.1714C116.225 18.7997 117.012 19.6949 117.586 20.857C118.161 22.0191 118.448 23.3973 118.448 24.9918C118.448 26.5795 118.161 27.9544 117.586 29.1165C117.012 30.2718 116.225 31.1637 115.225 31.792C114.225 32.4203 113.08 32.7345 111.79 32.7345ZM111.79 31.0319C112.702 31.0319 113.526 30.8022 114.262 30.3428C115.005 29.8766 115.593 29.1942 116.026 28.2956C116.465 27.397 116.684 26.2958 116.684 24.9918C116.684 23.6811 116.465 22.5764 116.026 21.6779C115.593 20.7725 115.005 20.0901 114.262 19.6307C113.526 19.1645 112.702 18.9314 111.79 18.9314C110.877 18.9314 110.05 19.1645 109.307 19.6307C108.563 20.0901 107.972 20.7725 107.533 21.6779C107.094 22.5764 106.874 23.6811 106.874 24.9918C106.874 26.2958 107.094 27.397 107.533 28.2956C107.972 29.1942 108.563 29.8766 109.307 30.3428C110.05 30.8022 110.877 31.0319 111.79 31.0319Z" fill="white"/>
<path d="M118.869 19.053V17.4315H130.199V19.053H125.456V32.5318H123.632V19.053H118.869Z" fill="white"/>
<path d="M133.66 17.4315V32.5318H131.836V17.4315H133.66Z" fill="white"/>
<path d="M145.006 32.5318L139.351 25.5999H137.952V32.5318H136.128V17.4315H137.952V23.9784H139.351L144.803 17.4315H146.972L140.871 24.7891L147.195 32.5318H145.006Z" fill="white"/>
<path d="M159.123 32.7345C157.84 32.7345 156.694 32.4203 155.688 31.792C154.681 31.1637 153.891 30.2718 153.316 29.1165C152.742 27.9544 152.455 26.5795 152.455 24.9918C152.455 23.3973 152.742 22.0191 153.316 20.857C153.891 19.6949 154.681 18.7997 155.688 18.1714C156.694 17.543 157.84 17.2289 159.123 17.2289C159.88 17.2289 160.593 17.3403 161.262 17.5633C161.937 17.7862 162.545 18.1105 163.086 18.5362C163.626 18.9551 164.076 19.4719 164.434 20.0868C164.799 20.6948 165.049 21.384 165.184 22.1542H163.359C163.251 21.6272 163.062 21.1644 162.792 20.7658C162.528 20.3671 162.204 20.0327 161.819 19.7625C161.441 19.4854 161.022 19.2794 160.562 19.1443C160.103 19.0024 159.623 18.9314 159.123 18.9314C158.211 18.9314 157.384 19.1645 156.64 19.6307C155.897 20.0901 155.306 20.7725 154.867 21.6779C154.434 22.5764 154.218 23.6811 154.218 24.9918C154.218 26.2958 154.434 27.397 154.867 28.2956C155.306 29.1942 155.897 29.8766 156.64 30.3428C157.384 30.8022 158.211 31.0319 159.123 31.0319C159.623 31.0319 160.103 30.9644 160.562 30.8292C161.022 30.6873 161.441 30.4813 161.819 30.211C162.204 29.934 162.528 29.5962 162.792 29.1976C163.062 28.799 163.251 28.3362 163.359 27.8092H165.184C165.049 28.5861 164.799 29.2787 164.434 29.8867C164.076 30.4948 163.626 31.0116 163.086 31.4373C162.545 31.8562 161.937 32.1771 161.262 32.4001C160.593 32.623 159.88 32.7345 159.123 32.7345Z" fill="white"/>
<path d="M166.962 32.5318V17.4315H172.253C173.3 17.4315 174.165 17.614 174.847 17.9788C175.529 18.3369 176.036 18.82 176.367 19.428C176.705 20.0361 176.874 20.7083 176.874 21.4448C176.874 22.0934 176.759 22.6305 176.529 23.0561C176.3 23.475 175.999 23.8095 175.627 24.0594C175.256 24.3027 174.854 24.4851 174.421 24.6067V24.7486C174.888 24.7756 175.354 24.9378 175.82 25.235C176.286 25.5323 176.675 25.9546 176.985 26.5018C177.303 27.0491 177.462 27.7213 177.462 28.5186C177.462 29.2753 177.289 29.9577 176.945 30.5657C176.6 31.167 176.056 31.6467 175.313 32.0048C174.577 32.3561 173.611 32.5318 172.415 32.5318H166.962ZM168.787 30.9103H172.415C173.611 30.9103 174.459 30.6772 174.958 30.211C175.465 29.7448 175.719 29.1807 175.719 28.5186C175.719 28.0051 175.587 27.5322 175.323 27.0998C175.067 26.6674 174.698 26.3194 174.219 26.0559C173.739 25.7924 173.171 25.6607 172.516 25.6607H168.787V30.9103ZM168.787 24.0797H172.192C172.739 24.0797 173.236 23.9716 173.682 23.7554C174.127 23.5325 174.479 23.225 174.736 22.8332C174.999 22.4346 175.131 21.9718 175.131 21.4448C175.131 20.7827 174.901 20.2185 174.442 19.7523C173.982 19.2861 173.253 19.053 172.253 19.053H168.787V24.0797Z" fill="white"/>
<path d="M181.105 17.4315V32.5318H179.281V17.4315H181.105Z" fill="white"/>
<path d="M182.742 19.053V17.4315H194.072V19.053H189.329V32.5318H187.505V19.053H182.742Z" fill="white"/>
<path d="M194.412 32.5318V30.8495H194.858C195.486 30.8495 195.973 30.6502 196.317 30.2516C196.669 29.8462 196.922 29.1942 197.077 28.2956C197.233 27.397 197.338 26.2079 197.392 24.7283L197.655 17.4315H206.857V32.5318H205.033V19.053H199.398L199.155 25.0729C199.101 26.6539 198.959 28.0017 198.729 29.1165C198.5 30.2245 198.094 31.0725 197.513 31.6603C196.932 32.2413 196.088 32.5318 194.98 32.5318H194.412Z" fill="white"/>
<path d="M209.953 32.5318H208.028L213.582 17.4315H215.467L221 32.5318H219.095L214.575 19.8233H214.453L209.953 32.5318ZM210.663 26.6336H218.385V28.2551H210.663V26.6336Z" fill="white"/>
<path d="M91.0424 40.8641V39.2426H102.373V40.8641H97.6297V54.3429H95.8056V40.8641H91.0424Z" fill="white"/>
<path d="M102.875 54.3429H100.949L106.503 39.2426H108.388L113.921 54.3429H112.016L107.496 41.6343H107.374L102.875 54.3429ZM103.584 48.4447H111.306V50.0662H103.584V48.4447Z" fill="white"/>
<path d="M118.451 54.3429V52.6606H118.897C119.526 52.6606 120.012 52.4613 120.357 52.0626C120.708 51.6573 120.961 51.0053 121.117 50.1067C121.272 49.2081 121.377 48.019 121.431 46.5394L121.695 39.2426H130.897V54.3429H129.072V40.8641H123.438L123.194 46.884C123.14 48.4649 122.998 49.8128 122.769 50.9276C122.539 52.0356 122.134 52.8835 121.553 53.4713C120.972 54.0524 120.127 54.3429 119.019 54.3429H118.451Z" fill="white"/>
<path d="M138.493 46.1137V47.7353H133.871V46.1137H138.493ZM135.189 39.2426V54.3429H133.364V39.2426H135.189ZM144.644 54.5456C143.36 54.5456 142.215 54.2314 141.209 53.6031C140.202 52.9747 139.408 52.0829 138.827 50.9276C138.253 49.7655 137.966 48.3906 137.966 46.8029C137.966 45.2084 138.253 43.8301 138.827 42.668C139.408 41.506 140.202 40.6108 141.209 39.9824C142.215 39.3541 143.36 39.0399 144.644 39.0399C145.935 39.0399 147.08 39.3541 148.08 39.9824C149.08 40.6108 149.867 41.506 150.441 42.668C151.015 43.8301 151.302 45.2084 151.302 46.8029C151.302 48.3906 151.015 49.7655 150.441 50.9276C149.867 52.0829 149.08 52.9747 148.08 53.6031C147.08 54.2314 145.935 54.5456 144.644 54.5456ZM144.644 52.843C145.556 52.843 146.38 52.6133 147.117 52.1539C147.86 51.6877 148.448 51.0053 148.88 50.1067C149.319 49.2081 149.539 48.1068 149.539 46.8029C149.539 45.4922 149.319 44.3875 148.88 43.4889C148.448 42.5836 147.86 41.9012 147.117 41.4418C146.38 40.9756 145.556 40.7425 144.644 40.7425C143.732 40.7425 142.904 40.9756 142.161 41.4418C141.418 41.9012 140.827 42.5836 140.388 43.4889C139.948 44.3875 139.729 45.4922 139.729 46.8029C139.729 48.1068 139.948 49.2081 140.388 50.1067C140.827 51.0053 141.418 51.6877 142.161 52.1539C142.904 52.6133 143.732 52.843 144.644 52.843Z" fill="white"/>
<path d="M153.183 54.3429V39.2426H162.303V40.8641H155.007V45.5868H158.838C159.925 45.5868 160.841 45.7624 161.584 46.1137C162.327 46.4651 162.891 46.965 163.276 47.6136C163.668 48.2555 163.864 49.0122 163.864 49.8837C163.864 50.7621 163.668 51.5357 163.276 52.2045C162.891 52.8734 162.327 53.397 161.584 53.7754C160.841 54.1537 159.925 54.3429 158.838 54.3429H153.183ZM155.007 52.7416H158.838C159.533 52.7416 160.118 52.6065 160.591 52.3363C161.07 52.0593 161.435 51.7012 161.685 51.262C161.935 50.8161 162.06 50.3499 162.06 49.8635C162.06 49.1406 161.783 48.519 161.229 47.9987C160.675 47.4718 159.878 47.2083 158.838 47.2083H155.007V52.7416Z" fill="white"/>
<path d="M171.774 54.5456C170.491 54.5456 169.345 54.2314 168.339 53.6031C167.332 52.9747 166.538 52.0829 165.957 50.9276C165.383 49.7655 165.096 48.3906 165.096 46.8029C165.096 45.2084 165.383 43.8301 165.957 42.668C166.538 41.506 167.332 40.6108 168.339 39.9824C169.345 39.3541 170.491 39.0399 171.774 39.0399C173.065 39.0399 174.21 39.3541 175.21 39.9824C176.21 40.6108 176.997 41.506 177.571 42.668C178.145 43.8301 178.433 45.2084 178.433 46.8029C178.433 48.3906 178.145 49.7655 177.571 50.9276C176.997 52.0829 176.21 52.9747 175.21 53.6031C174.21 54.2314 173.065 54.5456 171.774 54.5456ZM171.774 52.843C172.686 52.843 173.511 52.6133 174.247 52.1539C174.99 51.6877 175.578 51.0053 176.01 50.1067C176.45 49.2081 176.669 48.1068 176.669 46.8029C176.669 45.4922 176.45 44.3875 176.01 43.4889C175.578 42.5836 174.99 41.9012 174.247 41.4418C173.511 40.9756 172.686 40.7425 171.774 40.7425C170.862 40.7425 170.035 40.9756 169.291 41.4418C168.548 41.9012 167.957 42.5836 167.518 43.4889C167.079 44.3875 166.859 45.4922 166.859 46.8029C166.859 48.1068 167.079 49.2081 167.518 50.1067C167.957 51.0053 168.548 51.6877 169.291 52.1539C170.035 52.6133 170.862 52.843 171.774 52.843Z" fill="white"/>
<path d="M180.313 54.3429V39.2426H185.603C186.65 39.2426 187.515 39.425 188.197 39.7899C188.88 40.148 189.386 40.631 189.717 41.2391C190.055 41.8472 190.224 42.5194 190.224 43.2558C190.224 43.9044 190.109 44.4416 189.88 44.8672C189.65 45.2861 189.349 45.6205 188.978 45.8705C188.606 46.1137 188.204 46.2962 187.772 46.4178V46.5597C188.238 46.5867 188.704 46.7488 189.17 47.0461C189.636 47.3434 190.025 47.7657 190.336 48.3129C190.653 48.8602 190.812 49.5324 190.812 50.3297C190.812 51.0864 190.64 51.7687 190.295 52.3768C189.951 52.9781 189.407 53.4578 188.663 53.8159C187.927 54.1672 186.961 54.3429 185.765 54.3429H180.313ZM182.137 52.7214H185.765C186.961 52.7214 187.809 52.4883 188.309 52.0221C188.816 51.5559 189.069 50.9918 189.069 50.3297C189.069 49.8162 188.937 49.3432 188.674 48.9108C188.417 48.4784 188.049 48.1305 187.569 47.867C187.089 47.6035 186.522 47.4718 185.866 47.4718H182.137V52.7214ZM182.137 45.8908H185.542C186.089 45.8908 186.586 45.7827 187.032 45.5665C187.478 45.3435 187.829 45.0361 188.086 44.6443C188.349 44.2456 188.481 43.7828 188.481 43.2558C188.481 42.5937 188.251 42.0296 187.792 41.5634C187.333 41.0972 186.603 40.8641 185.603 40.8641H182.137V45.8908Z" fill="white"/>
<path d="M194.456 39.2426V54.3429H192.631V39.2426H194.456Z" fill="white"/>
</svg>
